<mxfile host="app.diagrams.net" modified="2023-11-10T02:25:56.304Z" agent="Mozilla/5.0 (Macintosh; Intel Mac OS X 10_15_7) AppleWebKit/537.36 (KHTML, like Gecko) Chrome/119.0.0.0 Safari/537.36" version="22.1.0" etag="Rg1f43ha9FWrYa2kDmrD" type="github">
  <diagram name="Page-1" id="ueXMhnKHo3EPgW_FwbSy">
    <mxGraphModel>
      <root>
        <mxCell id="0" />
        <mxCell id="1" parent="0" />
      </root>
    </mxGraphModel>
  </diagram>
</mxfile>
